<svg width="700" height="180" viewBox="0 0 700 180" fill="none" xmlns="http://www.w3.org/2000/svg">
<g clip-path="url(#clip0_1_2)">
<rect width="700" height="180" rx="24" fill="black"/>
<path d="M160.376 55.64C161.848 55.64 163.128 56.216 164.216 57.368C165.304 58.456 165.848 59.864 165.848 61.592C165.848 62.04 165.816 62.456 165.752 62.84C165.688 63.16 165.592 63.48 165.464 63.8L150.776 103.352C150.328 104.632 149.528 105.624 148.376 106.328C147.224 106.968 146.008 107.192 144.728 107C142.552 106.872 140.92 105.656 139.832 103.352L130.328 75.992L132.824 76.088L123.896 103.352C122.808 105.656 121.176 106.872 119 107C117.784 107.192 116.568 106.968 115.352 106.328C114.2 105.624 113.4 104.632 112.952 103.352L98.264 63.8C98.008 63.096 97.88 62.36 97.88 61.592C97.88 60.056 98.392 58.68 99.416 57.464C100.44 56.248 101.848 55.64 103.64 55.64C104.856 55.64 105.944 55.928 106.904 56.504C107.864 57.08 108.536 58.008 108.92 59.288L120.536 90.776L118.136 90.584L126.872 66.872C127.896 64.504 129.656 63.32 132.152 63.32C133.56 63.32 134.616 63.64 135.32 64.28C136.088 64.856 136.696 65.72 137.144 66.872L145.88 90.584L143 90.968L154.808 59.288C155.576 56.856 157.432 55.64 160.376 55.64ZM224.752 81.368C224.752 86.616 223.568 91.256 221.2 95.288C218.896 99.256 215.76 102.36 211.792 104.6C207.888 106.84 203.504 107.96 198.64 107.96C193.776 107.96 189.36 106.84 185.392 104.6C181.488 102.36 178.352 99.256 175.984 95.288C173.68 91.256 172.528 86.616 172.528 81.368C172.528 76.12 173.68 71.512 175.984 67.544C178.352 63.512 181.488 60.376 185.392 58.136C189.36 55.832 193.776 54.68 198.64 54.68C203.504 54.68 207.888 55.832 211.792 58.136C215.76 60.376 218.896 63.512 221.2 67.544C223.568 71.512 224.752 76.12 224.752 81.368ZM213.232 81.368C213.232 78.104 212.56 75.288 211.216 72.92C209.936 70.488 208.176 68.6 205.936 67.256C203.76 65.912 201.328 65.24 198.64 65.24C195.952 65.24 193.488 65.912 191.248 67.256C189.072 68.6 187.312 70.488 185.968 72.92C184.688 75.288 184.048 78.104 184.048 81.368C184.048 84.568 184.688 87.384 185.968 89.816C187.312 92.184 189.072 94.04 191.248 95.384C193.488 96.728 195.952 97.4 198.64 97.4C201.328 97.4 203.76 96.728 205.936 95.384C208.176 94.04 209.936 92.184 211.216 89.816C212.56 87.384 213.232 84.568 213.232 81.368ZM240.594 107C238.93 107 237.554 106.456 236.466 105.368C235.378 104.216 234.834 102.808 234.834 101.144V61.496C234.834 59.832 235.378 58.456 236.466 57.368C237.554 56.216 238.93 55.64 240.594 55.64C242.258 55.64 243.634 56.216 244.722 57.368C245.81 58.456 246.354 59.832 246.354 61.496V70.52L245.682 64.088C246.386 62.552 247.282 61.208 248.37 60.056C249.522 58.84 250.802 57.848 252.21 57.08C253.618 56.248 255.122 55.64 256.722 55.256C258.322 54.872 259.922 54.68 261.522 54.68C263.442 54.68 265.042 55.224 266.322 56.312C267.666 57.4 268.338 58.68 268.338 60.152C268.338 62.264 267.794 63.8 266.706 64.76C265.618 65.656 264.434 66.104 263.154 66.104C261.938 66.104 260.818 65.88 259.794 65.432C258.834 64.984 257.714 64.76 256.434 64.76C255.282 64.76 254.098 65.048 252.882 65.624C251.73 66.136 250.642 66.968 249.618 68.12C248.658 69.272 247.858 70.712 247.218 72.44C246.642 74.104 246.354 76.088 246.354 78.392V101.144C246.354 102.808 245.81 104.216 244.722 105.368C243.634 106.456 242.258 107 240.594 107ZM288.939 101.144C288.939 102.808 288.363 104.216 287.211 105.368C286.123 106.456 284.747 107 283.083 107C281.483 107 280.139 106.456 279.051 105.368C277.963 104.216 277.419 102.808 277.419 101.144V41.816C277.419 40.152 277.963 38.776 279.051 37.688C280.203 36.536 281.611 35.96 283.275 35.96C284.939 35.96 286.283 36.536 287.307 37.688C288.395 38.776 288.939 40.152 288.939 41.816V101.144ZM343.444 35.96C345.108 35.96 346.484 36.504 347.572 37.592C348.66 38.68 349.204 40.088 349.204 41.816V101.144C349.204 102.808 348.66 104.216 347.572 105.368C346.484 106.456 345.108 107 343.444 107C341.78 107 340.404 106.456 339.316 105.368C338.228 104.216 337.684 102.808 337.684 101.144V96.44L339.796 97.304C339.796 98.136 339.348 99.16 338.452 100.376C337.556 101.528 336.34 102.68 334.804 103.832C333.268 104.984 331.444 105.976 329.332 106.808C327.284 107.576 325.044 107.96 322.612 107.96C318.196 107.96 314.196 106.84 310.612 104.6C307.028 102.296 304.18 99.16 302.068 95.192C300.02 91.16 298.996 86.552 298.996 81.368C298.996 76.12 300.02 71.512 302.068 67.544C304.18 63.512 306.996 60.376 310.516 58.136C314.036 55.832 317.94 54.68 322.228 54.68C324.98 54.68 327.508 55.096 329.812 55.928C332.116 56.76 334.1 57.816 335.764 59.096C337.492 60.376 338.804 61.688 339.7 63.032C340.66 64.312 341.14 65.4 341.14 66.296L337.684 67.544V41.816C337.684 40.152 338.228 38.776 339.316 37.688C340.404 36.536 341.78 35.96 343.444 35.96ZM324.052 97.4C326.868 97.4 329.332 96.696 331.444 95.288C333.556 93.88 335.188 91.96 336.34 89.528C337.556 87.096 338.164 84.376 338.164 81.368C338.164 78.296 337.556 75.544 336.34 73.112C335.188 70.68 333.556 68.76 331.444 67.352C329.332 65.944 326.868 65.24 324.052 65.24C321.3 65.24 318.868 65.944 316.756 67.352C314.644 68.76 312.98 70.68 311.764 73.112C310.612 75.544 310.036 78.296 310.036 81.368C310.036 84.376 310.612 87.096 311.764 89.528C312.98 91.96 314.644 93.88 316.756 95.288C318.868 96.696 321.3 97.4 324.052 97.4ZM384.526 54.68C388.174 54.68 391.342 55.064 394.03 55.832C396.782 56.6 398.894 57.688 400.366 59.096C401.902 60.44 402.67 62.072 402.67 63.992C402.67 65.272 402.286 66.488 401.518 67.64C400.75 68.728 399.63 69.272 398.158 69.272C397.134 69.272 396.27 69.144 395.566 68.888C394.926 68.568 394.35 68.184 393.838 67.736C393.326 67.288 392.718 66.872 392.014 66.488C391.374 66.104 390.382 65.816 389.038 65.624C387.758 65.368 386.798 65.24 386.158 65.24C382.894 65.24 380.11 65.944 377.806 67.352C375.566 68.76 373.838 70.68 372.622 73.112C371.406 75.48 370.798 78.232 370.798 81.368C370.798 84.44 371.406 87.192 372.622 89.624C373.902 91.992 375.63 93.88 377.806 95.288C380.046 96.696 382.606 97.4 385.486 97.4C387.086 97.4 388.462 97.304 389.614 97.112C390.766 96.92 391.726 96.632 392.494 96.248C393.39 95.736 394.19 95.192 394.894 94.616C395.598 94.04 396.654 93.752 398.062 93.752C399.726 93.752 401.006 94.296 401.902 95.384C402.798 96.408 403.246 97.688 403.246 99.224C403.246 100.824 402.35 102.296 400.558 103.64C398.766 104.92 396.398 105.976 393.454 106.808C390.574 107.576 387.438 107.96 384.046 107.96C378.99 107.96 374.606 106.808 370.894 104.504C367.182 102.136 364.302 98.936 362.254 94.904C360.27 90.872 359.278 86.36 359.278 81.368C359.278 76.12 360.334 71.512 362.446 67.544C364.622 63.512 367.598 60.376 371.374 58.136C375.214 55.832 379.598 54.68 384.526 54.68ZM424.033 101.144C424.033 102.808 423.457 104.216 422.305 105.368C421.217 106.456 419.841 107 418.177 107C416.577 107 415.233 106.456 414.145 105.368C413.057 104.216 412.513 102.808 412.513 101.144V41.816C412.513 40.152 413.057 38.776 414.145 37.688C415.297 36.536 416.705 35.96 418.369 35.96C420.033 35.96 421.377 36.536 422.401 37.688C423.489 38.776 424.033 40.152 424.033 41.816V101.144ZM460.682 107.96C455.242 107.96 450.506 106.84 446.474 104.6C442.506 102.296 439.434 99.192 437.258 95.288C435.146 91.384 434.09 86.968 434.09 82.04C434.09 76.28 435.242 71.384 437.546 67.352C439.914 63.256 442.986 60.12 446.762 57.944C450.538 55.768 454.538 54.68 458.762 54.68C462.026 54.68 465.098 55.352 467.978 56.696C470.922 58.04 473.514 59.896 475.754 62.264C477.994 64.568 479.754 67.256 481.034 70.328C482.378 73.4 483.05 76.664 483.05 80.12C482.986 81.656 482.378 82.904 481.226 83.864C480.074 84.824 478.73 85.304 477.194 85.304H440.522L437.642 75.704H472.874L470.762 77.624V75.032C470.634 73.176 469.962 71.512 468.746 70.04C467.594 68.568 466.122 67.416 464.33 66.584C462.602 65.688 460.746 65.24 458.762 65.24C456.842 65.24 455.05 65.496 453.386 66.008C451.722 66.52 450.282 67.384 449.066 68.6C447.85 69.816 446.89 71.448 446.186 73.496C445.482 75.544 445.13 78.136 445.13 81.272C445.13 84.728 445.834 87.672 447.242 90.104C448.714 92.472 450.57 94.296 452.81 95.576C455.114 96.792 457.546 97.4 460.106 97.4C462.474 97.4 464.362 97.208 465.77 96.824C467.178 96.44 468.298 95.992 469.13 95.48C470.026 94.904 470.826 94.424 471.53 94.04C472.682 93.464 473.77 93.176 474.794 93.176C476.202 93.176 477.354 93.656 478.25 94.616C479.21 95.576 479.69 96.696 479.69 97.976C479.69 99.704 478.794 101.272 477.002 102.68C475.338 104.088 473.002 105.336 469.994 106.424C466.986 107.448 463.882 107.96 460.682 107.96ZM535.538 54.68C537.202 54.68 538.578 55.224 539.666 56.312C540.754 57.4 541.298 58.808 541.298 60.536V101.144C541.298 102.808 540.754 104.216 539.666 105.368C538.578 106.456 537.202 107 535.538 107C533.874 107 532.498 106.456 531.41 105.368C530.322 104.216 529.778 102.808 529.778 101.144V96.44L531.89 97.304C531.89 98.136 531.442 99.16 530.546 100.376C529.65 101.528 528.434 102.68 526.898 103.832C525.362 104.984 523.538 105.976 521.426 106.808C519.378 107.576 517.138 107.96 514.706 107.96C510.29 107.96 506.29 106.84 502.706 104.6C499.122 102.296 496.274 99.16 494.162 95.192C492.114 91.16 491.09 86.552 491.09 81.368C491.09 76.12 492.114 71.512 494.162 67.544C496.274 63.512 499.09 60.376 502.61 58.136C506.13 55.832 510.034 54.68 514.322 54.68C517.074 54.68 519.602 55.096 521.906 55.928C524.21 56.76 526.194 57.816 527.858 59.096C529.586 60.376 530.898 61.688 531.794 63.032C532.754 64.312 533.234 65.4 533.234 66.296L529.778 67.544V60.536C529.778 58.872 530.322 57.496 531.41 56.408C532.498 55.256 533.874 54.68 535.538 54.68ZM516.146 97.4C518.962 97.4 521.426 96.696 523.538 95.288C525.65 93.88 527.282 91.96 528.434 89.528C529.65 87.096 530.258 84.376 530.258 81.368C530.258 78.296 529.65 75.544 528.434 73.112C527.282 70.68 525.65 68.76 523.538 67.352C521.426 65.944 518.962 65.24 516.146 65.24C513.394 65.24 510.962 65.944 508.85 67.352C506.738 68.76 505.074 70.68 503.858 73.112C502.706 75.544 502.13 78.296 502.13 81.368C502.13 84.376 502.706 87.096 503.858 89.528C505.074 91.96 506.738 93.88 508.85 95.288C510.962 96.696 513.394 97.4 516.146 97.4ZM581.227 54.68C585.963 54.68 589.547 55.672 591.979 57.656C594.475 59.64 596.171 62.296 597.067 65.624C598.027 68.888 598.507 72.536 598.507 76.568V101.144C598.507 102.808 597.963 104.216 596.875 105.368C595.787 106.456 594.411 107 592.747 107C591.083 107 589.707 106.456 588.619 105.368C587.531 104.216 586.987 102.808 586.987 101.144V76.568C586.987 74.456 586.699 72.568 586.123 70.904C585.611 69.176 584.651 67.8 583.243 66.776C581.835 65.752 579.819 65.24 577.195 65.24C574.635 65.24 572.459 65.752 570.667 66.776C568.939 67.8 567.595 69.176 566.635 70.904C565.739 72.568 565.291 74.456 565.291 76.568V101.144C565.291 102.808 564.747 104.216 563.659 105.368C562.571 106.456 561.195 107 559.531 107C557.867 107 556.491 106.456 555.403 105.368C554.315 104.216 553.771 102.808 553.771 101.144V61.496C553.771 59.832 554.315 58.456 555.403 57.368C556.491 56.216 557.867 55.64 559.531 55.64C561.195 55.64 562.571 56.216 563.659 57.368C564.747 58.456 565.291 59.832 565.291 61.496V65.624L563.851 65.336C564.427 64.248 565.259 63.096 566.347 61.88C567.435 60.6 568.715 59.416 570.187 58.328C571.659 57.24 573.323 56.376 575.179 55.736C577.035 55.032 579.051 54.68 581.227 54.68Z" fill="white"/>
<path d="M154.296 127.28C155.112 127.28 155.848 127.368 156.504 127.544C157.16 127.72 157.68 127.96 158.064 128.264C158.448 128.568 158.64 128.912 158.64 129.296C158.64 129.504 158.568 129.704 158.424 129.896C158.28 130.088 158.088 130.184 157.848 130.184C157.624 130.184 157.44 130.144 157.296 130.064C157.168 129.984 157.04 129.88 156.912 129.752C156.8 129.624 156.64 129.512 156.432 129.416C156.24 129.304 155.96 129.216 155.592 129.152C155.224 129.088 154.856 129.056 154.488 129.056C153.608 129.056 152.832 129.264 152.16 129.68C151.504 130.096 150.984 130.656 150.6 131.36C150.216 132.064 150.024 132.864 150.024 133.76C150.024 134.656 150.208 135.456 150.576 136.16C150.944 136.864 151.456 137.424 152.112 137.84C152.768 138.256 153.528 138.464 154.392 138.464C154.952 138.464 155.4 138.416 155.736 138.32C156.072 138.224 156.352 138.112 156.576 137.984C156.864 137.824 157.08 137.664 157.224 137.504C157.384 137.344 157.592 137.264 157.848 137.264C158.12 137.264 158.328 137.352 158.472 137.528C158.632 137.704 158.712 137.92 158.712 138.176C158.712 138.464 158.512 138.768 158.112 139.088C157.712 139.408 157.168 139.68 156.48 139.904C155.808 140.128 155.04 140.24 154.176 140.24C152.96 140.24 151.896 139.96 150.984 139.4C150.072 138.824 149.36 138.048 148.848 137.072C148.352 136.08 148.104 134.976 148.104 133.76C148.104 132.544 148.36 131.448 148.872 130.472C149.4 129.496 150.128 128.72 151.056 128.144C151.984 127.568 153.064 127.28 154.296 127.28ZM163.333 139.016C163.333 139.288 163.237 139.52 163.045 139.712C162.853 139.904 162.621 140 162.349 140C162.077 140 161.853 139.904 161.677 139.712C161.501 139.52 161.413 139.288 161.413 139.016V123.2C161.413 122.928 161.501 122.704 161.677 122.528C161.869 122.336 162.101 122.24 162.373 122.24C162.661 122.24 162.893 122.336 163.069 122.528C163.245 122.704 163.333 122.928 163.333 123.2V139.016ZM172.559 140.24C171.279 140.24 170.159 139.968 169.199 139.424C168.239 138.88 167.487 138.136 166.943 137.192C166.415 136.232 166.151 135.128 166.151 133.88C166.151 132.488 166.423 131.304 166.967 130.328C167.527 129.336 168.247 128.584 169.127 128.072C170.023 127.544 170.967 127.28 171.959 127.28C172.695 127.28 173.407 127.416 174.095 127.688C174.783 127.96 175.391 128.36 175.919 128.888C176.447 129.4 176.871 130.024 177.191 130.76C177.511 131.48 177.679 132.288 177.695 133.184C177.695 133.44 177.599 133.656 177.407 133.832C177.215 134.008 176.991 134.096 176.735 134.096H167.255L166.823 132.44H176.063L175.679 132.776V132.248C175.615 131.592 175.391 131.032 175.007 130.568C174.639 130.088 174.183 129.72 173.639 129.464C173.111 129.208 172.551 129.08 171.959 129.08C171.479 129.08 170.999 129.168 170.519 129.344C170.055 129.504 169.631 129.776 169.247 130.16C168.879 130.528 168.575 131.008 168.335 131.6C168.111 132.192 167.999 132.904 167.999 133.736C167.999 134.664 168.183 135.48 168.551 136.184C168.935 136.888 169.463 137.448 170.135 137.864C170.807 138.264 171.591 138.464 172.487 138.464C173.047 138.464 173.535 138.392 173.951 138.248C174.367 138.104 174.727 137.928 175.031 137.72C175.335 137.496 175.591 137.272 175.799 137.048C176.007 136.904 176.207 136.832 176.399 136.832C176.639 136.832 176.831 136.912 176.975 137.072C177.135 137.232 177.215 137.424 177.215 137.648C177.215 137.92 177.087 138.16 176.831 138.368C176.383 138.864 175.775 139.304 175.007 139.688C174.239 140.056 173.423 140.24 172.559 140.24ZM190.898 127.472C191.17 127.472 191.394 127.568 191.57 127.76C191.762 127.936 191.858 128.16 191.858 128.432V139.016C191.858 139.288 191.762 139.52 191.57 139.712C191.394 139.904 191.17 140 190.898 140C190.61 140 190.378 139.904 190.202 139.712C190.026 139.52 189.938 139.288 189.938 139.016V136.736L190.394 136.688C190.394 137.04 190.274 137.424 190.034 137.84C189.794 138.256 189.466 138.648 189.05 139.016C188.634 139.368 188.138 139.664 187.562 139.904C187.002 140.128 186.394 140.24 185.738 140.24C184.65 140.24 183.674 139.96 182.81 139.4C181.946 138.824 181.258 138.048 180.746 137.072C180.25 136.096 180.002 134.984 180.002 133.736C180.002 132.472 180.25 131.36 180.746 130.4C181.258 129.424 181.946 128.664 182.81 128.12C183.674 127.56 184.634 127.28 185.69 127.28C186.378 127.28 187.018 127.392 187.61 127.616C188.202 127.84 188.714 128.144 189.146 128.528C189.594 128.912 189.938 129.336 190.178 129.8C190.434 130.264 190.562 130.728 190.562 131.192L189.938 131.048V128.432C189.938 128.16 190.026 127.936 190.202 127.76C190.378 127.568 190.61 127.472 190.898 127.472ZM185.954 138.464C186.754 138.464 187.458 138.256 188.066 137.84C188.69 137.424 189.17 136.864 189.506 136.16C189.858 135.44 190.034 134.632 190.034 133.736C190.034 132.856 189.858 132.064 189.506 131.36C189.17 130.64 188.69 130.08 188.066 129.68C187.458 129.264 186.754 129.056 185.954 129.056C185.17 129.056 184.466 129.256 183.842 129.656C183.234 130.056 182.754 130.608 182.402 131.312C182.05 132.016 181.874 132.824 181.874 133.736C181.874 134.632 182.042 135.44 182.378 136.16C182.73 136.864 183.21 137.424 183.818 137.84C184.442 138.256 185.154 138.464 185.954 138.464ZM201.585 127.28C202.673 127.28 203.529 127.504 204.153 127.952C204.777 128.4 205.217 129 205.473 129.752C205.745 130.504 205.881 131.344 205.881 132.272V139.016C205.881 139.288 205.785 139.52 205.593 139.712C205.417 139.904 205.193 140 204.921 140C204.649 140 204.417 139.904 204.225 139.712C204.049 139.52 203.961 139.288 203.961 139.016V132.32C203.961 131.712 203.865 131.168 203.673 130.688C203.497 130.192 203.193 129.8 202.761 129.512C202.345 129.208 201.769 129.056 201.033 129.056C200.361 129.056 199.745 129.208 199.185 129.512C198.625 129.8 198.177 130.192 197.841 130.688C197.505 131.168 197.337 131.712 197.337 132.32V139.016C197.337 139.288 197.241 139.52 197.049 139.712C196.873 139.904 196.649 140 196.377 140C196.105 140 195.873 139.904 195.681 139.712C195.505 139.52 195.417 139.288 195.417 139.016V128.552C195.417 128.28 195.505 128.056 195.681 127.88C195.873 127.688 196.105 127.592 196.377 127.592C196.665 127.592 196.897 127.688 197.073 127.88C197.249 128.056 197.337 128.28 197.337 128.552V130.256L196.857 130.784C196.937 130.368 197.121 129.952 197.409 129.536C197.697 129.104 198.057 128.72 198.489 128.384C198.921 128.048 199.401 127.784 199.929 127.592C200.457 127.384 201.009 127.28 201.585 127.28ZM230.682 127.376C230.938 127.376 231.154 127.464 231.33 127.64C231.522 127.816 231.618 128.048 231.618 128.336C231.618 128.4 231.61 128.472 231.594 128.552C231.594 128.616 231.578 128.68 231.546 128.744L227.85 139.376C227.77 139.584 227.634 139.744 227.442 139.856C227.266 139.968 227.074 140.016 226.866 140C226.498 139.984 226.218 139.776 226.026 139.376L223.002 131.792L223.482 131.864L220.746 139.376C220.57 139.776 220.29 139.984 219.906 140C219.698 140.016 219.498 139.968 219.306 139.856C219.114 139.744 218.986 139.584 218.922 139.376L215.154 128.744C215.106 128.6 215.082 128.464 215.082 128.336C215.082 128.08 215.17 127.856 215.346 127.664C215.522 127.472 215.762 127.376 216.066 127.376C216.258 127.376 216.434 127.424 216.594 127.52C216.754 127.616 216.866 127.768 216.93 127.976L220.17 137.432L219.666 137.408L222.474 130.208C222.634 129.808 222.93 129.608 223.362 129.608C223.586 129.608 223.762 129.664 223.89 129.776C224.034 129.872 224.138 130.016 224.202 130.208L227.13 137.408L226.53 137.456L229.77 127.976C229.914 127.576 230.218 127.376 230.682 127.376ZM245.99 133.76C245.99 135.008 245.71 136.12 245.15 137.096C244.606 138.072 243.862 138.84 242.918 139.4C241.99 139.96 240.942 140.24 239.774 140.24C238.606 140.24 237.55 139.96 236.606 139.4C235.662 138.84 234.91 138.072 234.35 137.096C233.806 136.12 233.534 135.008 233.534 133.76C233.534 132.512 233.806 131.4 234.35 130.424C234.91 129.448 235.662 128.68 236.606 128.12C237.55 127.56 238.606 127.28 239.774 127.28C240.942 127.28 241.99 127.56 242.918 128.12C243.862 128.68 244.606 129.448 245.15 130.424C245.71 131.4 245.99 132.512 245.99 133.76ZM244.07 133.76C244.07 132.832 243.878 132.016 243.494 131.312C243.126 130.608 242.614 130.056 241.958 129.656C241.318 129.256 240.59 129.056 239.774 129.056C238.958 129.056 238.222 129.256 237.566 129.656C236.926 130.056 236.414 130.608 236.03 131.312C235.646 132.016 235.454 132.832 235.454 133.76C235.454 134.672 235.646 135.48 236.03 136.184C236.414 136.888 236.926 137.448 237.566 137.864C238.222 138.264 238.958 138.464 239.774 138.464C240.59 138.464 241.318 138.264 241.958 137.864C242.614 137.448 243.126 136.888 243.494 136.184C243.878 135.48 244.07 134.672 244.07 133.76ZM249.838 140C249.566 140 249.334 139.904 249.142 139.712C248.966 139.52 248.878 139.288 248.878 139.016V128.552C248.878 128.28 248.966 128.056 249.142 127.88C249.334 127.688 249.566 127.592 249.838 127.592C250.126 127.592 250.358 127.688 250.534 127.88C250.71 128.056 250.798 128.28 250.798 128.552V131.72L250.51 131.216C250.606 130.72 250.774 130.24 251.014 129.776C251.27 129.296 251.59 128.872 251.974 128.504C252.358 128.12 252.798 127.824 253.294 127.616C253.79 127.392 254.334 127.28 254.926 127.28C255.278 127.28 255.598 127.368 255.886 127.544C256.19 127.704 256.342 127.936 256.342 128.24C256.342 128.576 256.254 128.824 256.078 128.984C255.902 129.144 255.702 129.224 255.478 129.224C255.27 129.224 255.07 129.184 254.878 129.104C254.686 129.008 254.446 128.96 254.158 128.96C253.758 128.96 253.358 129.072 252.958 129.296C252.574 129.504 252.214 129.808 251.878 130.208C251.558 130.608 251.294 131.064 251.086 131.576C250.894 132.072 250.798 132.608 250.798 133.184V139.016C250.798 139.288 250.702 139.52 250.51 139.712C250.334 139.904 250.11 140 249.838 140ZM260.622 139.016C260.622 139.288 260.526 139.52 260.334 139.712C260.142 139.904 259.91 140 259.638 140C259.366 140 259.142 139.904 258.966 139.712C258.79 139.52 258.702 139.288 258.702 139.016V123.2C258.702 122.928 258.79 122.704 258.966 122.528C259.158 122.336 259.39 122.24 259.662 122.24C259.95 122.24 260.182 122.336 260.358 122.528C260.534 122.704 260.622 122.928 260.622 123.2V139.016ZM274.336 122.24C274.608 122.24 274.832 122.336 275.008 122.528C275.2 122.704 275.296 122.928 275.296 123.2V139.016C275.296 139.288 275.2 139.52 275.008 139.712C274.832 139.904 274.608 140 274.336 140C274.048 140 273.816 139.904 273.64 139.712C273.464 139.52 273.376 139.288 273.376 139.016V136.736L273.832 136.568C273.832 136.952 273.712 137.36 273.472 137.792C273.232 138.208 272.904 138.6 272.488 138.968C272.072 139.336 271.576 139.64 271 139.88C270.44 140.12 269.832 140.24 269.176 140.24C268.104 140.24 267.128 139.96 266.248 139.4C265.384 138.84 264.696 138.072 264.184 137.096C263.688 136.12 263.44 135.008 263.44 133.76C263.44 132.496 263.688 131.376 264.184 130.4C264.696 129.424 265.384 128.664 266.248 128.12C267.112 127.56 268.072 127.28 269.128 127.28C269.8 127.28 270.432 127.392 271.024 127.616C271.616 127.84 272.128 128.144 272.56 128.528C273.008 128.912 273.36 129.336 273.616 129.8C273.872 130.264 274 130.728 274 131.192L273.376 131.048V123.2C273.376 122.928 273.464 122.704 273.64 122.528C273.816 122.336 274.048 122.24 274.336 122.24ZM269.392 138.464C270.192 138.464 270.896 138.264 271.504 137.864C272.128 137.448 272.608 136.888 272.944 136.184C273.296 135.464 273.472 134.656 273.472 133.76C273.472 132.848 273.296 132.04 272.944 131.336C272.608 130.632 272.128 130.08 271.504 129.68C270.896 129.264 270.192 129.056 269.392 129.056C268.608 129.056 267.904 129.264 267.28 129.68C266.672 130.08 266.192 130.632 265.84 131.336C265.488 132.04 265.312 132.848 265.312 133.76C265.312 134.64 265.488 135.44 265.84 136.16C266.192 136.864 266.672 137.424 267.28 137.84C267.904 138.256 268.608 138.464 269.392 138.464ZM278.158 138.032C278.014 137.824 277.95 137.608 277.966 137.384C277.982 137.144 278.118 136.936 278.374 136.76C278.534 136.648 278.718 136.6 278.926 136.616C279.15 136.632 279.35 136.736 279.526 136.928C279.974 137.456 280.486 137.88 281.062 138.2C281.638 138.504 282.342 138.656 283.174 138.656C283.558 138.64 283.942 138.576 284.326 138.464C284.71 138.352 285.03 138.16 285.286 137.888C285.558 137.6 285.694 137.224 285.694 136.76C285.694 136.312 285.558 135.96 285.286 135.704C285.014 135.432 284.662 135.216 284.23 135.056C283.798 134.88 283.326 134.728 282.814 134.6C282.286 134.456 281.766 134.296 281.254 134.12C280.742 133.928 280.278 133.696 279.862 133.424C279.462 133.136 279.134 132.784 278.878 132.368C278.638 131.936 278.518 131.416 278.518 130.808C278.518 130.088 278.71 129.464 279.094 128.936C279.494 128.408 280.022 128 280.678 127.712C281.35 127.424 282.078 127.28 282.862 127.28C283.31 127.28 283.774 127.336 284.254 127.448C284.75 127.544 285.23 127.72 285.694 127.976C286.158 128.216 286.566 128.552 286.918 128.984C287.062 129.144 287.142 129.344 287.158 129.584C287.174 129.824 287.07 130.04 286.846 130.232C286.67 130.36 286.47 130.416 286.246 130.4C286.038 130.384 285.862 130.304 285.718 130.16C285.382 129.76 284.958 129.456 284.446 129.248C283.95 129.024 283.398 128.912 282.79 128.912C282.406 128.912 282.03 128.968 281.662 129.08C281.294 129.192 280.982 129.384 280.726 129.656C280.486 129.912 280.366 130.272 280.366 130.736C280.382 131.168 280.526 131.52 280.798 131.792C281.07 132.064 281.438 132.288 281.902 132.464C282.366 132.624 282.878 132.784 283.438 132.944C283.95 133.072 284.438 133.224 284.902 133.4C285.382 133.56 285.814 133.776 286.198 134.048C286.582 134.32 286.886 134.672 287.11 135.104C287.334 135.52 287.446 136.048 287.446 136.688C287.446 137.424 287.238 138.064 286.822 138.608C286.406 139.136 285.854 139.544 285.166 139.832C284.494 140.104 283.766 140.24 282.982 140.24C282.102 140.24 281.23 140.072 280.366 139.736C279.518 139.4 278.782 138.832 278.158 138.032ZM297.335 133.496C297.063 133.496 296.831 133.408 296.639 133.232C296.463 133.04 296.375 132.8 296.375 132.512C296.375 132.24 296.463 132.016 296.639 131.84C296.831 131.664 297.063 131.576 297.335 131.576H302.183C302.455 131.576 302.679 131.672 302.855 131.864C303.047 132.056 303.143 132.288 303.143 132.56C303.143 132.832 303.047 133.056 302.855 133.232C302.679 133.408 302.455 133.496 302.183 133.496H297.335ZM318.023 122.288C318.295 122.288 318.575 122.32 318.863 122.384C319.167 122.448 319.423 122.56 319.631 122.72C319.855 122.88 319.967 123.096 319.967 123.368C319.967 123.624 319.887 123.84 319.727 124.016C319.567 124.176 319.375 124.256 319.151 124.256C319.007 124.256 318.807 124.216 318.551 124.136C318.295 124.04 318.031 123.992 317.759 123.992C317.391 123.992 317.087 124.072 316.847 124.232C316.623 124.392 316.455 124.608 316.343 124.88C316.247 125.136 316.199 125.424 316.199 125.744V139.016C316.199 139.288 316.103 139.52 315.911 139.712C315.735 139.904 315.511 140 315.239 140C314.951 140 314.719 139.904 314.543 139.712C314.367 139.52 314.279 139.288 314.279 139.016V125.768C314.279 124.696 314.607 123.848 315.263 123.224C315.935 122.6 316.855 122.288 318.023 122.288ZM318.695 127.784C318.951 127.784 319.167 127.872 319.343 128.048C319.519 128.208 319.607 128.416 319.607 128.672C319.607 128.928 319.519 129.144 319.343 129.32C319.167 129.48 318.951 129.56 318.695 129.56H312.671C312.415 129.56 312.199 129.472 312.023 129.296C311.847 129.12 311.759 128.912 311.759 128.672C311.759 128.4 311.847 128.184 312.023 128.024C312.199 127.864 312.415 127.784 312.671 127.784H318.695ZM323.056 140C322.784 140 322.552 139.904 322.36 139.712C322.184 139.52 322.096 139.288 322.096 139.016V128.552C322.096 128.28 322.184 128.056 322.36 127.88C322.552 127.688 322.784 127.592 323.056 127.592C323.344 127.592 323.576 127.688 323.752 127.88C323.928 128.056 324.016 128.28 324.016 128.552V131.72L323.728 131.216C323.824 130.72 323.992 130.24 324.232 129.776C324.488 129.296 324.808 128.872 325.192 128.504C325.576 128.12 326.016 127.824 326.512 127.616C327.008 127.392 327.552 127.28 328.144 127.28C328.496 127.28 328.816 127.368 329.104 127.544C329.408 127.704 329.56 127.936 329.56 128.24C329.56 128.576 329.472 128.824 329.296 128.984C329.12 129.144 328.92 129.224 328.696 129.224C328.488 129.224 328.288 129.184 328.096 129.104C327.904 129.008 327.664 128.96 327.376 128.96C326.976 128.96 326.576 129.072 326.176 129.296C325.792 129.504 325.432 129.808 325.096 130.208C324.776 130.608 324.512 131.064 324.304 131.576C324.112 132.072 324.016 132.608 324.016 133.184V139.016C324.016 139.288 323.92 139.52 323.728 139.712C323.552 139.904 323.328 140 323.056 140ZM336.926 140.24C335.646 140.24 334.526 139.968 333.566 139.424C332.606 138.88 331.854 138.136 331.31 137.192C330.782 136.232 330.518 135.128 330.518 133.88C330.518 132.488 330.79 131.304 331.334 130.328C331.894 129.336 332.614 128.584 333.494 128.072C334.39 127.544 335.334 127.28 336.326 127.28C337.062 127.28 337.774 127.416 338.462 127.688C339.15 127.96 339.758 128.36 340.286 128.888C340.814 129.4 341.238 130.024 341.558 130.76C341.878 131.48 342.046 132.288 342.062 133.184C342.062 133.44 341.966 133.656 341.774 133.832C341.582 134.008 341.358 134.096 341.102 134.096H331.622L331.19 132.44H340.43L340.046 132.776V132.248C339.982 131.592 339.758 131.032 339.374 130.568C339.006 130.088 338.55 129.72 338.006 129.464C337.478 129.208 336.918 129.08 336.326 129.08C335.846 129.08 335.366 129.168 334.886 129.344C334.422 129.504 333.998 129.776 333.614 130.16C333.246 130.528 332.942 131.008 332.702 131.6C332.478 132.192 332.366 132.904 332.366 133.736C332.366 134.664 332.55 135.48 332.918 136.184C333.302 136.888 333.83 137.448 334.502 137.864C335.174 138.264 335.958 138.464 336.854 138.464C337.414 138.464 337.902 138.392 338.318 138.248C338.734 138.104 339.094 137.928 339.398 137.72C339.702 137.496 339.958 137.272 340.166 137.048C340.374 136.904 340.574 136.832 340.766 136.832C341.006 136.832 341.198 136.912 341.342 137.072C341.502 137.232 341.582 137.424 341.582 137.648C341.582 137.92 341.454 138.16 341.198 138.368C340.75 138.864 340.142 139.304 339.374 139.688C338.606 140.056 337.79 140.24 336.926 140.24ZM350.684 140.24C349.404 140.24 348.284 139.968 347.324 139.424C346.364 138.88 345.612 138.136 345.068 137.192C344.54 136.232 344.276 135.128 344.276 133.88C344.276 132.488 344.548 131.304 345.092 130.328C345.652 129.336 346.372 128.584 347.252 128.072C348.148 127.544 349.092 127.28 350.084 127.28C350.82 127.28 351.532 127.416 352.22 127.688C352.908 127.96 353.516 128.36 354.044 128.888C354.572 129.4 354.996 130.024 355.316 130.76C355.636 131.48 355.804 132.288 355.82 133.184C355.82 133.44 355.724 133.656 355.532 133.832C355.34 134.008 355.116 134.096 354.86 134.096H345.38L344.948 132.44H354.188L353.804 132.776V132.248C353.74 131.592 353.516 131.032 353.132 130.568C352.764 130.088 352.308 129.72 351.764 129.464C351.236 129.208 350.676 129.08 350.084 129.08C349.604 129.08 349.124 129.168 348.644 129.344C348.18 129.504 347.756 129.776 347.372 130.16C347.004 130.528 346.7 131.008 346.46 131.6C346.236 132.192 346.124 132.904 346.124 133.736C346.124 134.664 346.308 135.48 346.676 136.184C347.06 136.888 347.588 137.448 348.26 137.864C348.932 138.264 349.716 138.464 350.612 138.464C351.172 138.464 351.66 138.392 352.076 138.248C352.492 138.104 352.852 137.928 353.156 137.72C353.46 137.496 353.716 137.272 353.924 137.048C354.132 136.904 354.332 136.832 354.524 136.832C354.764 136.832 354.956 136.912 355.1 137.072C355.26 137.232 355.34 137.424 355.34 137.648C355.34 137.92 355.212 138.16 354.956 138.368C354.508 138.864 353.9 139.304 353.132 139.688C352.364 140.056 351.548 140.24 350.684 140.24ZM375.539 127.472C375.811 127.472 376.035 127.568 376.211 127.76C376.403 127.936 376.499 128.16 376.499 128.432V139.016C376.499 139.288 376.403 139.52 376.211 139.712C376.035 139.904 375.811 140 375.539 140C375.251 140 375.019 139.904 374.843 139.712C374.667 139.52 374.579 139.288 374.579 139.016V136.736L375.035 136.688C375.035 137.04 374.915 137.424 374.675 137.84C374.435 138.256 374.107 138.648 373.691 139.016C373.275 139.368 372.779 139.664 372.203 139.904C371.643 140.128 371.035 140.24 370.379 140.24C369.291 140.24 368.315 139.96 367.451 139.4C366.587 138.824 365.899 138.048 365.387 137.072C364.891 136.096 364.643 134.984 364.643 133.736C364.643 132.472 364.891 131.36 365.387 130.4C365.899 129.424 366.587 128.664 367.451 128.12C368.315 127.56 369.275 127.28 370.331 127.28C371.019 127.28 371.659 127.392 372.251 127.616C372.843 127.84 373.355 128.144 373.787 128.528C374.235 128.912 374.579 129.336 374.819 129.8C375.075 130.264 375.203 130.728 375.203 131.192L374.579 131.048V128.432C374.579 128.16 374.667 127.936 374.843 127.76C375.019 127.568 375.251 127.472 375.539 127.472ZM370.595 138.464C371.395 138.464 372.099 138.256 372.707 137.84C373.331 137.424 373.811 136.864 374.147 136.16C374.499 135.44 374.675 134.632 374.675 133.736C374.675 132.856 374.499 132.064 374.147 131.36C373.811 130.64 373.331 130.08 372.707 129.68C372.099 129.264 371.395 129.056 370.595 129.056C369.811 129.056 369.107 129.256 368.483 129.656C367.875 130.056 367.395 130.608 367.043 131.312C366.691 132.016 366.515 132.824 366.515 133.736C366.515 134.632 366.683 135.44 367.019 136.16C367.371 136.864 367.851 137.424 368.459 137.84C369.083 138.256 369.795 138.464 370.595 138.464ZM386.225 127.28C387.313 127.28 388.169 127.504 388.793 127.952C389.417 128.4 389.857 129 390.113 129.752C390.385 130.504 390.521 131.344 390.521 132.272V139.016C390.521 139.288 390.425 139.52 390.233 139.712C390.057 139.904 389.833 140 389.561 140C389.289 140 389.057 139.904 388.865 139.712C388.689 139.52 388.601 139.288 388.601 139.016V132.32C388.601 131.712 388.505 131.168 388.313 130.688C388.137 130.192 387.833 129.8 387.401 129.512C386.985 129.208 386.409 129.056 385.673 129.056C385.001 129.056 384.385 129.208 383.825 129.512C383.265 129.8 382.817 130.192 382.481 130.688C382.145 131.168 381.977 131.712 381.977 132.32V139.016C381.977 139.288 381.881 139.52 381.689 139.712C381.513 139.904 381.289 140 381.017 140C380.745 140 380.513 139.904 380.321 139.712C380.145 139.52 380.057 139.288 380.057 139.016V128.552C380.057 128.28 380.145 128.056 380.321 127.88C380.513 127.688 380.745 127.592 381.017 127.592C381.305 127.592 381.537 127.688 381.713 127.88C381.889 128.056 381.977 128.28 381.977 128.552V130.256L381.497 130.784C381.577 130.368 381.761 129.952 382.049 129.536C382.337 129.104 382.697 128.72 383.129 128.384C383.561 128.048 384.041 127.784 384.569 127.592C385.097 127.384 385.649 127.28 386.225 127.28ZM404.297 122.24C404.569 122.24 404.793 122.336 404.969 122.528C405.161 122.704 405.257 122.928 405.257 123.2V139.016C405.257 139.288 405.161 139.52 404.969 139.712C404.793 139.904 404.569 140 404.297 140C404.009 140 403.777 139.904 403.601 139.712C403.425 139.52 403.337 139.288 403.337 139.016V136.736L403.793 136.568C403.793 136.952 403.673 137.36 403.433 137.792C403.193 138.208 402.865 138.6 402.449 138.968C402.033 139.336 401.537 139.64 400.961 139.88C400.401 140.12 399.793 140.24 399.137 140.24C398.065 140.24 397.089 139.96 396.209 139.4C395.345 138.84 394.657 138.072 394.145 137.096C393.649 136.12 393.401 135.008 393.401 133.76C393.401 132.496 393.649 131.376 394.145 130.4C394.657 129.424 395.345 128.664 396.209 128.12C397.073 127.56 398.033 127.28 399.089 127.28C399.761 127.28 400.393 127.392 400.985 127.616C401.577 127.84 402.089 128.144 402.521 128.528C402.969 128.912 403.321 129.336 403.577 129.8C403.833 130.264 403.961 130.728 403.961 131.192L403.337 131.048V123.2C403.337 122.928 403.425 122.704 403.601 122.528C403.777 122.336 404.009 122.24 404.297 122.24ZM399.353 138.464C400.153 138.464 400.857 138.264 401.465 137.864C402.089 137.448 402.569 136.888 402.905 136.184C403.257 135.464 403.433 134.656 403.433 133.76C403.433 132.848 403.257 132.04 402.905 131.336C402.569 130.632 402.089 130.08 401.465 129.68C400.857 129.264 400.153 129.056 399.353 129.056C398.569 129.056 397.865 129.264 397.241 129.68C396.633 130.08 396.153 130.632 395.801 131.336C395.449 132.04 395.273 132.848 395.273 133.76C395.273 134.64 395.449 135.44 395.801 136.16C396.153 136.864 396.633 137.424 397.241 137.84C397.865 138.256 398.569 138.464 399.353 138.464ZM427.208 133.76C427.208 135.008 426.928 136.12 426.368 137.096C425.824 138.072 425.08 138.84 424.136 139.4C423.208 139.96 422.16 140.24 420.992 140.24C419.824 140.24 418.768 139.96 417.824 139.4C416.88 138.84 416.128 138.072 415.568 137.096C415.024 136.12 414.752 135.008 414.752 133.76C414.752 132.512 415.024 131.4 415.568 130.424C416.128 129.448 416.88 128.68 417.824 128.12C418.768 127.56 419.824 127.28 420.992 127.28C422.16 127.28 423.208 127.56 424.136 128.12C425.08 128.68 425.824 129.448 426.368 130.424C426.928 131.4 427.208 132.512 427.208 133.76ZM425.288 133.76C425.288 132.832 425.096 132.016 424.712 131.312C424.344 130.608 423.832 130.056 423.176 129.656C422.536 129.256 421.808 129.056 420.992 129.056C420.176 129.056 419.44 129.256 418.784 129.656C418.144 130.056 417.632 130.608 417.248 131.312C416.864 132.016 416.672 132.832 416.672 133.76C416.672 134.672 416.864 135.48 417.248 136.184C417.632 136.888 418.144 137.448 418.784 137.864C419.44 138.264 420.176 138.464 420.992 138.464C421.808 138.464 422.536 138.264 423.176 137.864C423.832 137.448 424.344 136.888 424.712 136.184C425.096 135.48 425.288 134.672 425.288 133.76ZM436.216 127.4C437.304 127.4 438.28 127.672 439.144 128.216C440.008 128.76 440.688 129.512 441.184 130.472C441.696 131.432 441.952 132.536 441.952 133.784C441.952 135.016 441.696 136.12 441.184 137.096C440.688 138.056 440.008 138.816 439.144 139.376C438.296 139.92 437.336 140.192 436.264 140.192C435.672 140.192 435.112 140.104 434.584 139.928C434.072 139.736 433.6 139.496 433.168 139.208C432.752 138.904 432.4 138.568 432.112 138.2C431.824 137.816 431.616 137.44 431.488 137.072L432.016 136.736V143.816C432.016 144.088 431.928 144.32 431.752 144.512C431.576 144.704 431.344 144.8 431.056 144.8C430.784 144.8 430.552 144.704 430.36 144.512C430.184 144.336 430.096 144.104 430.096 143.816V128.48C430.096 128.208 430.184 127.984 430.36 127.808C430.552 127.616 430.784 127.52 431.056 127.52C431.344 127.52 431.576 127.616 431.752 127.808C431.928 127.984 432.016 128.208 432.016 128.48V130.616L431.656 130.424C431.768 130.024 431.96 129.64 432.232 129.272C432.52 128.904 432.864 128.584 433.264 128.312C433.68 128.024 434.136 127.8 434.632 127.64C435.144 127.48 435.672 127.4 436.216 127.4ZM436 129.176C435.2 129.176 434.488 129.376 433.864 129.776C433.256 130.176 432.776 130.72 432.424 131.408C432.088 132.096 431.92 132.888 431.92 133.784C431.92 134.664 432.088 135.456 432.424 136.16C432.776 136.864 433.256 137.416 433.864 137.816C434.488 138.216 435.2 138.416 436 138.416C436.8 138.416 437.504 138.216 438.112 137.816C438.72 137.416 439.2 136.864 439.552 136.16C439.904 135.456 440.08 134.664 440.08 133.784C440.08 132.888 439.904 132.096 439.552 131.408C439.2 130.72 438.72 130.176 438.112 129.776C437.504 129.376 436.8 129.176 436 129.176ZM450.575 140.24C449.295 140.24 448.175 139.968 447.215 139.424C446.255 138.88 445.503 138.136 444.959 137.192C444.431 136.232 444.167 135.128 444.167 133.88C444.167 132.488 444.439 131.304 444.983 130.328C445.543 129.336 446.263 128.584 447.143 128.072C448.039 127.544 448.983 127.28 449.975 127.28C450.711 127.28 451.423 127.416 452.111 127.688C452.799 127.96 453.407 128.36 453.935 128.888C454.463 129.4 454.887 130.024 455.207 130.76C455.527 131.48 455.695 132.288 455.711 133.184C455.711 133.44 455.615 133.656 455.423 133.832C455.231 134.008 455.007 134.096 454.751 134.096H445.271L444.839 132.44H454.079L453.695 132.776V132.248C453.631 131.592 453.407 131.032 453.023 130.568C452.655 130.088 452.199 129.72 451.655 129.464C451.127 129.208 450.567 129.08 449.975 129.08C449.495 129.08 449.015 129.168 448.535 129.344C448.071 129.504 447.647 129.776 447.263 130.16C446.895 130.528 446.591 131.008 446.351 131.6C446.127 132.192 446.015 132.904 446.015 133.736C446.015 134.664 446.199 135.48 446.567 136.184C446.951 136.888 447.479 137.448 448.151 137.864C448.823 138.264 449.607 138.464 450.503 138.464C451.063 138.464 451.551 138.392 451.967 138.248C452.383 138.104 452.743 137.928 453.047 137.72C453.351 137.496 453.607 137.272 453.815 137.048C454.023 136.904 454.223 136.832 454.415 136.832C454.655 136.832 454.847 136.912 454.991 137.072C455.151 137.232 455.231 137.424 455.231 137.648C455.231 137.92 455.103 138.16 454.847 138.368C454.399 138.864 453.791 139.304 453.023 139.688C452.255 140.056 451.439 140.24 450.575 140.24ZM464.764 127.28C465.852 127.28 466.708 127.504 467.332 127.952C467.956 128.4 468.396 129 468.652 129.752C468.924 130.504 469.06 131.344 469.06 132.272V139.016C469.06 139.288 468.964 139.52 468.772 139.712C468.596 139.904 468.372 140 468.1 140C467.828 140 467.596 139.904 467.404 139.712C467.228 139.52 467.14 139.288 467.14 139.016V132.32C467.14 131.712 467.044 131.168 466.852 130.688C466.676 130.192 466.372 129.8 465.94 129.512C465.524 129.208 464.948 129.056 464.212 129.056C463.54 129.056 462.924 129.208 462.364 129.512C461.804 129.8 461.356 130.192 461.02 130.688C460.684 131.168 460.516 131.712 460.516 132.32V139.016C460.516 139.288 460.42 139.52 460.228 139.712C460.052 139.904 459.828 140 459.556 140C459.284 140 459.052 139.904 458.86 139.712C458.684 139.52 458.596 139.288 458.596 139.016V128.552C458.596 128.28 458.684 128.056 458.86 127.88C459.052 127.688 459.284 127.592 459.556 127.592C459.844 127.592 460.076 127.688 460.252 127.88C460.428 128.056 460.516 128.28 460.516 128.552V130.256L460.036 130.784C460.116 130.368 460.3 129.952 460.588 129.536C460.876 129.104 461.236 128.72 461.668 128.384C462.1 128.048 462.58 127.784 463.108 127.592C463.636 127.384 464.188 127.28 464.764 127.28ZM478.525 138.032C478.381 137.824 478.317 137.608 478.333 137.384C478.349 137.144 478.485 136.936 478.741 136.76C478.901 136.648 479.085 136.6 479.293 136.616C479.517 136.632 479.717 136.736 479.893 136.928C480.341 137.456 480.853 137.88 481.429 138.2C482.005 138.504 482.709 138.656 483.541 138.656C483.925 138.64 484.309 138.576 484.693 138.464C485.077 138.352 485.397 138.16 485.653 137.888C485.925 137.6 486.061 137.224 486.061 136.76C486.061 136.312 485.925 135.96 485.653 135.704C485.381 135.432 485.029 135.216 484.597 135.056C484.165 134.88 483.693 134.728 483.181 134.6C482.653 134.456 482.133 134.296 481.621 134.12C481.109 133.928 480.645 133.696 480.229 133.424C479.829 133.136 479.501 132.784 479.245 132.368C479.005 131.936 478.885 131.416 478.885 130.808C478.885 130.088 479.077 129.464 479.461 128.936C479.861 128.408 480.389 128 481.045 127.712C481.717 127.424 482.445 127.28 483.229 127.28C483.677 127.28 484.141 127.336 484.621 127.448C485.117 127.544 485.597 127.72 486.061 127.976C486.525 128.216 486.933 128.552 487.285 128.984C487.429 129.144 487.509 129.344 487.525 129.584C487.541 129.824 487.437 130.04 487.213 130.232C487.037 130.36 486.837 130.416 486.613 130.4C486.405 130.384 486.229 130.304 486.085 130.16C485.749 129.76 485.325 129.456 484.813 129.248C484.317 129.024 483.765 128.912 483.157 128.912C482.773 128.912 482.397 128.968 482.029 129.08C481.661 129.192 481.349 129.384 481.093 129.656C480.853 129.912 480.733 130.272 480.733 130.736C480.749 131.168 480.893 131.52 481.165 131.792C481.437 132.064 481.805 132.288 482.269 132.464C482.733 132.624 483.245 132.784 483.805 132.944C484.317 133.072 484.805 133.224 485.269 133.4C485.749 133.56 486.181 133.776 486.565 134.048C486.949 134.32 487.253 134.672 487.477 135.104C487.701 135.52 487.813 136.048 487.813 136.688C487.813 137.424 487.605 138.064 487.189 138.608C486.773 139.136 486.221 139.544 485.533 139.832C484.861 140.104 484.133 140.24 483.349 140.24C482.469 140.24 481.597 140.072 480.733 139.736C479.885 139.4 479.149 138.832 478.525 138.032ZM502.372 133.76C502.372 135.008 502.093 136.12 501.533 137.096C500.989 138.072 500.245 138.84 499.301 139.4C498.373 139.96 497.325 140.24 496.157 140.24C494.989 140.24 493.933 139.96 492.989 139.4C492.045 138.84 491.293 138.072 490.733 137.096C490.189 136.12 489.917 135.008 489.917 133.76C489.917 132.512 490.189 131.4 490.733 130.424C491.293 129.448 492.045 128.68 492.989 128.12C493.933 127.56 494.989 127.28 496.157 127.28C497.325 127.28 498.373 127.56 499.301 128.12C500.245 128.68 500.989 129.448 501.533 130.424C502.093 131.4 502.372 132.512 502.372 133.76ZM500.453 133.76C500.453 132.832 500.261 132.016 499.877 131.312C499.509 130.608 498.997 130.056 498.341 129.656C497.701 129.256 496.973 129.056 496.157 129.056C495.341 129.056 494.605 129.256 493.949 129.656C493.309 130.056 492.797 130.608 492.413 131.312C492.029 132.016 491.837 132.832 491.837 133.76C491.837 134.672 492.029 135.48 492.413 136.184C492.797 136.888 493.309 137.448 493.949 137.864C494.605 138.264 495.341 138.464 496.157 138.464C496.973 138.464 497.701 138.264 498.341 137.864C498.997 137.448 499.509 136.888 499.877 136.184C500.261 135.48 500.453 134.672 500.453 133.76ZM514.548 127.592C514.836 127.592 515.068 127.688 515.244 127.88C515.42 128.056 515.508 128.28 515.508 128.552V135.104C515.508 136.72 515.052 137.976 514.14 138.872C513.244 139.752 511.988 140.192 510.372 140.192C508.772 140.192 507.516 139.752 506.604 138.872C505.708 137.976 505.26 136.72 505.26 135.104V128.552C505.26 128.28 505.348 128.056 505.524 127.88C505.716 127.688 505.948 127.592 506.22 127.592C506.508 127.592 506.74 127.688 506.916 127.88C507.092 128.056 507.18 128.28 507.18 128.552V135.104C507.18 136.192 507.46 137.016 508.02 137.576C508.58 138.136 509.364 138.416 510.372 138.416C511.412 138.416 512.204 138.136 512.748 137.576C513.308 137.016 513.588 136.192 513.588 135.104V128.552C513.588 128.28 513.676 128.056 513.852 127.88C514.044 127.688 514.276 127.592 514.548 127.592ZM520.025 140C519.753 140 519.521 139.904 519.329 139.712C519.153 139.52 519.065 139.288 519.065 139.016V128.552C519.065 128.28 519.153 128.056 519.329 127.88C519.521 127.688 519.753 127.592 520.025 127.592C520.313 127.592 520.545 127.688 520.721 127.88C520.897 128.056 520.985 128.28 520.985 128.552V131.72L520.697 131.216C520.793 130.72 520.961 130.24 521.201 129.776C521.457 129.296 521.777 128.872 522.161 128.504C522.545 128.12 522.985 127.824 523.481 127.616C523.977 127.392 524.521 127.28 525.113 127.28C525.465 127.28 525.785 127.368 526.073 127.544C526.377 127.704 526.529 127.936 526.529 128.24C526.529 128.576 526.441 128.824 526.265 128.984C526.089 129.144 525.889 129.224 525.665 129.224C525.457 129.224 525.257 129.184 525.065 129.104C524.873 129.008 524.633 128.96 524.345 128.96C523.945 128.96 523.545 129.072 523.145 129.296C522.761 129.504 522.401 129.808 522.065 130.208C521.745 130.608 521.481 131.064 521.273 131.576C521.081 132.072 520.985 132.608 520.985 133.184V139.016C520.985 139.288 520.889 139.52 520.697 139.712C520.521 139.904 520.297 140 520.025 140ZM533.679 127.28C534.495 127.28 535.231 127.368 535.887 127.544C536.543 127.72 537.063 127.96 537.447 128.264C537.831 128.568 538.023 128.912 538.023 129.296C538.023 129.504 537.951 129.704 537.807 129.896C537.663 130.088 537.471 130.184 537.231 130.184C537.007 130.184 536.823 130.144 536.679 130.064C536.551 129.984 536.423 129.88 536.295 129.752C536.183 129.624 536.023 129.512 535.815 129.416C535.623 129.304 535.343 129.216 534.975 129.152C534.607 129.088 534.239 129.056 533.871 129.056C532.991 129.056 532.215 129.264 531.543 129.68C530.887 130.096 530.367 130.656 529.983 131.36C529.599 132.064 529.407 132.864 529.407 133.76C529.407 134.656 529.591 135.456 529.959 136.16C530.327 136.864 530.839 137.424 531.495 137.84C532.151 138.256 532.911 138.464 533.775 138.464C534.335 138.464 534.783 138.416 535.119 138.32C535.455 138.224 535.735 138.112 535.959 137.984C536.247 137.824 536.463 137.664 536.607 137.504C536.767 137.344 536.975 137.264 537.231 137.264C537.503 137.264 537.711 137.352 537.855 137.528C538.015 137.704 538.095 137.92 538.095 138.176C538.095 138.464 537.895 138.768 537.495 139.088C537.095 139.408 536.551 139.68 535.863 139.904C535.191 140.128 534.423 140.24 533.559 140.24C532.343 140.24 531.279 139.96 530.367 139.4C529.455 138.824 528.743 138.048 528.231 137.072C527.735 136.08 527.487 134.976 527.487 133.76C527.487 132.544 527.743 131.448 528.255 130.472C528.783 129.496 529.511 128.72 530.439 128.144C531.367 127.568 532.447 127.28 533.679 127.28ZM546.34 140.24C545.06 140.24 543.94 139.968 542.98 139.424C542.02 138.88 541.268 138.136 540.724 137.192C540.196 136.232 539.932 135.128 539.932 133.88C539.932 132.488 540.204 131.304 540.748 130.328C541.308 129.336 542.028 128.584 542.908 128.072C543.804 127.544 544.748 127.28 545.74 127.28C546.476 127.28 547.188 127.416 547.876 127.688C548.564 127.96 549.172 128.36 549.7 128.888C550.228 129.4 550.652 130.024 550.972 130.76C551.292 131.48 551.46 132.288 551.476 133.184C551.476 133.44 551.38 133.656 551.188 133.832C550.996 134.008 550.772 134.096 550.516 134.096H541.036L540.604 132.44H549.844L549.46 132.776V132.248C549.396 131.592 549.172 131.032 548.788 130.568C548.42 130.088 547.964 129.72 547.42 129.464C546.892 129.208 546.332 129.08 545.74 129.08C545.26 129.08 544.78 129.168 544.3 129.344C543.836 129.504 543.412 129.776 543.028 130.16C542.66 130.528 542.356 131.008 542.116 131.6C541.892 132.192 541.78 132.904 541.78 133.736C541.78 134.664 541.964 135.48 542.332 136.184C542.716 136.888 543.244 137.448 543.916 137.864C544.588 138.264 545.372 138.464 546.268 138.464C546.828 138.464 547.316 138.392 547.732 138.248C548.148 138.104 548.508 137.928 548.812 137.72C549.116 137.496 549.372 137.272 549.58 137.048C549.788 136.904 549.988 136.832 550.18 136.832C550.42 136.832 550.612 136.912 550.756 137.072C550.916 137.232 550.996 137.424 550.996 137.648C550.996 137.92 550.868 138.16 550.612 138.368C550.164 138.864 549.556 139.304 548.788 139.688C548.02 140.056 547.204 140.24 546.34 140.24Z" fill="#D5D5D5"/>
</g>
<defs>
<clipPath id="clip0_1_2">
<rect width="700" height="180" fill="white"/>
</clipPath>
</defs>
</svg>
